<?xml version="1.0" standalone="no"?>
<!DOCTYPE svg PUBLIC "-//W3C//DTD SVG 20010904//EN"
 "http://www.w3.org/TR/2001/REC-SVG-20010904/DTD/svg10.dtd">
<svg version="1.0" xmlns="http://www.w3.org/2000/svg"
 width="174.000000pt" height="210.000000pt" viewBox="0 0 174.000000 210.000000"
 preserveAspectRatio="xMidYMid meet">

<g transform="translate(0.000000,210.000000) scale(0.100000,-0.100000)"
fill="#734638" stroke="none">
<path d="M766 2068 c-43 -69 -22 -120 98 -240 48 -48 93 -103 101 -122 17 -41
20 -123 5 -162 -10 -24 -9 -26 5 -14 44 36 70 125 55 183 -17 65 -52 109 -145
187 -98 82 -121 117 -106 161 12 35 7 37 -13 7z"/>
<path d="M671 1892 c-1 -79 16 -114 102 -210 77 -85 97 -124 97 -186 l0 -46
-61 0 c-116 0 -259 -47 -259 -85 0 -46 240 -77 441 -57 114 12 197 35 213 60
15 25 -104 70 -209 78 -100 8 -98 7 -80 50 36 87 6 170 -87 242 -89 68 -128
115 -143 168 l-13 49 -1 -63z"/>
<path d="M1241 1348 c-3 -83 -204 -129 -466 -108 -173 15 -249 41 -264 94 -19
66 -12 -19 9 -98 28 -110 92 -225 162 -292 32 -31 58 -57 58 -60 0 -18 -196
18 -265 50 -62 28 -69 22 -26 -22 73 -73 200 -104 421 -104 229 0 373 39 440
120 33 41 33 51 -2 29 -12 -8 -45 -22 -71 -31 -55 -18 -214 -46 -222 -38 -2 3
23 34 57 71 58 61 113 159 172 304 12 30 20 37 43 37 60 0 70 -50 22 -105 -18
-20 -45 -43 -60 -51 -33 -17 -41 -48 -10 -36 11 4 39 21 63 38 107 75 97 204
-16 204 -19 0 -37 6 -39 13 -3 6 -6 0 -6 -15z"/>
<path d="M71 452 c-49 -26 -73 -75 -68 -135 7 -79 74 -133 154 -124 48 5 73
21 73 47 0 24 -23 31 -58 18 -41 -16 -79 -3 -97 33 -39 75 33 148 107 108 17
-9 24 -7 41 9 l20 21 -34 20 c-42 26 -94 27 -138 3z"/>
<path d="M566 454 c-3 -9 -6 -71 -6 -139 0 -128 5 -143 43 -123 13 7 17 21 17
63 l0 54 48 3 c40 3 47 6 50 26 3 20 0 22 -47 22 -50 0 -51 1 -51 30 0 30 1
30 53 30 59 0 83 11 74 34 -9 23 -172 24 -181 0z"/>
<path d="M795 406 c-4 -37 -4 -100 0 -142 7 -74 7 -75 33 -72 l27 3 0 135 0
135 -27 3 c-26 3 -26 1 -33 -62z"/>
<path d="M1001 453 c-52 -27 -76 -66 -76 -123 0 -60 24 -96 84 -127 24 -12 50
-32 59 -44 11 -16 21 -20 43 -15 15 3 48 -2 72 -10 59 -20 131 -15 135 9 3 13
-3 17 -25 17 -46 0 -98 19 -121 43 l-22 24 20 46 c22 49 21 77 -4 126 -32 61
-106 85 -165 54z m95 -68 c30 -30 29 -74 -2 -90 -11 -6 -19 -15 -17 -21 6 -19
-29 -25 -53 -9 -37 24 -47 51 -34 90 19 59 65 71 106 30z"/>
<path d="M1243 454 c-9 -24 3 -188 16 -212 16 -30 62 -52 110 -52 75 0 112 59
110 175 -1 71 -11 99 -36 103 -26 4 -33 -19 -33 -120 0 -82 -10 -98 -58 -98
-35 0 -47 28 -47 114 0 44 -4 87 -8 94 -11 17 -46 15 -54 -4z"/>
<path d="M1542 458 c-8 -8 -12 -48 -12 -123 0 -143 4 -147 116 -143 77 3 79 4
79 28 0 24 -3 25 -62 28 -62 3 -63 3 -63 32 0 28 2 29 53 32 44 3 52 6 52 23
0 17 -8 21 -55 25 -51 5 -55 7 -55 30 0 24 3 25 68 28 64 3 68 4 65 25 -3 20
-9 22 -88 25 -58 2 -89 -1 -98 -10z"/>
<path d="M334 403 c-38 -86 -71 -165 -78 -190 -7 -20 -4 -23 24 -23 23 0 33 6
39 24 6 15 20 25 41 30 56 11 69 7 85 -24 15 -28 47 -41 59 -22 3 5 -19 64
-48 133 -66 152 -82 162 -122 72z m66 -79 c13 -34 13 -34 -15 -34 -25 0 -31
13 -19 44 9 24 23 19 34 -10z"/>
<path d="M668 103 c-14 -3 -18 -15 -18 -54 0 -49 0 -49 33 -49 46 0 54 9 54
57 0 34 -4 42 -21 47 -11 3 -23 5 -26 5 -3 -1 -13 -3 -22 -6z m55 -29 c-7 -18
-54 -16 -61 4 -2 8 8 12 32 12 28 0 34 -3 29 -16z m1 -39 c4 -12 -3 -15 -29
-15 -33 0 -43 8 -28 23 12 13 51 7 57 -8z"/>
<path d="M841 87 c-19 -23 -42 -87 -31 -87 5 0 10 5 10 10 0 13 46 13 71 -1
19 -10 19 -9 3 28 -8 21 -18 44 -21 51 -7 16 -18 15 -32 -1z m36 -32 c8 -21
-1 -28 -26 -20 -12 4 -18 12 -14 21 7 19 32 18 40 -1z"/>
<path d="M968 78 c-2 -13 -1 -36 3 -53 4 -17 7 -22 8 -12 2 29 31 33 51 7 17
-23 18 -23 16 26 -1 49 -1 49 -37 52 -31 3 -37 0 -41 -20z m65 6 c12 -12 -6
-34 -29 -34 -17 0 -24 6 -24 20 0 14 7 20 23 20 13 0 26 -3 30 -6z"/>
<path d="M1138 53 c17 -2 47 -2 65 0 17 2 3 4 -33 4 -36 0 -50 -2 -32 -4z"/>
<path d="M1323 53 c9 -2 25 -2 35 0 9 3 1 5 -18 5 -19 0 -27 -2 -17 -5z"/>
</g>
</svg>
